<svg viewBox="0 0 90 90" fill="none" xmlns="http://www.w3.org/2000/svg">
  <g clip-path="url(#clip0_2791_1679)">
    <rect width="90" height="90" transform="matrix(-1 0 0 1 90 0)" fill="#FF7a00" />
    <path
      d="M29.4404 64.2865L26.953 67.1653C26.9755 68.5832 27.7835 72.0267 30.8353 74.4574C34.6502 77.4958 36.2031 76.8544 41.4697 76.8544C46.7362 76.8544 51.4626 73.951 54.6022 71.4191C57.7419 68.8871 59.6662 66.4226 59.0923 64.6333C58.6331 63.2019 57.5506 62.9791 57.0667 63.0466L57.2692 61.8988C58.6084 60.4359 61.6107 55.9166 62.9071 49.5427C64.5276 41.5754 62.8396 36.9503 62.6708 34.0132C62.5358 31.6636 63.1547 26.6198 63.481 24.3917L61.1854 19.0577L58.2145 14.2975C56.0089 13.6447 51.4693 12.339 50.9562 12.339C50.3147 12.339 40.7945 11.5621 40.6594 11.6634C40.5514 11.7444 35.2579 15.0729 32.6246 16.727L26.4466 33.4726C25.67 33.3263 23.9845 33.1215 23.4547 33.4726C22.7925 33.9114 21.8466 34.9826 23.4547 39.271C24.7412 42.7016 27.207 45.5844 28.2791 46.597L29.4404 50.707V64.2865Z"
      fill="white" />
    <path
      d="M25.3357 29.016C25.2785 31.4003 25.8971 32.9314 26.2136 33.399C28.8427 34.6156 29.2675 38.2179 29.1513 39.867C29.9383 38.301 31.4979 34.8924 31.4406 33.7859C31.3691 32.4028 30.7491 30.5904 31.8222 28.5872C32.6807 26.9847 34.4851 25.1056 35.28 24.3663C33.2053 20.8369 33.7061 18.7622 35.28 17.0214C36.854 15.2805 38.4756 15.5667 41.218 15.7575C43.9604 15.9482 43.5073 16.0675 46.3928 16.616C49.2783 17.1645 53.7139 16.3775 56.6709 16.616C59.628 16.8544 59.5088 18.1426 60.725 20.2884C61.6979 22.0051 62.4658 27.1722 62.7281 29.5411C63.0302 27.8241 63.6057 24.1469 63.4912 23.1739C63.3482 21.9577 61.6789 16.0436 61.1542 15.0659C60.6296 14.0882 55.3355 9.48648 53.1177 8.60413C50.8999 7.72179 47.0844 6.81536 40.7172 8.19849C34.35 9.58163 32.3945 11.8711 29.8429 14.0651C27.8016 15.8202 27.0051 17.5147 26.862 18.1426L25.3357 19.4538C25.3596 21.6478 25.393 26.6317 25.3357 29.016Z"
      fill="#CCCCCC" />
    <path d="M44.6231 16.1703C43.9305 15.6195 42.9609 13.9797 44.6231 11.8262" stroke="black"
      stroke-width="1.5" stroke-linecap="round" stroke-linejoin="round" />
    <path d="M48.2429 16.3746C47.4634 15.7481 46.3568 13.9265 48.1663 11.6523" stroke="black"
      stroke-width="1.5" stroke-linecap="round" stroke-linejoin="round" />
    <path d="M51.6293 16.236C51.0627 15.355 50.2694 12.9412 51.6293 10.334" stroke="black"
      stroke-width="1.5" stroke-linecap="round" stroke-linejoin="round" />
    <path d="M54.0381 16.4274C54.2742 15.7659 54.6047 13.9614 54.0381 12.0352" stroke="black"
      stroke-width="1.5" stroke-linecap="round" stroke-linejoin="round" />
    <path d="M56.8022 16.9737C57.0698 16.6111 57.4444 15.5176 56.8022 14.0449" stroke="black"
      stroke-width="1.5" stroke-linecap="round" stroke-linejoin="round" />
    <path d="M59.08 18.2395C59.2239 18.0875 59.4626 17.4917 59.5467 16.7325" stroke="black"
      stroke-width="1.5" stroke-linecap="round" stroke-linejoin="round" />
    <path d="M40.1537 13.0007C39.7052 13.5551 39.227 14.9402 40.9031 16.045" stroke="black"
      stroke-width="1.5" stroke-linecap="round" stroke-linejoin="round" />
    <path d="M37.7661 16.5762C36.8361 16.1132 36.0844 14.7739 35.6411 13.5762" stroke="black"
      stroke-width="1.5" stroke-linecap="round" stroke-linejoin="round" />
    <path
      d="M31.2139 31.8657C31.2139 28.6214 32.989 26.6892 34.7602 25.162C35.0914 24.8764 35.2067 24.4139 35.0362 24.0111C34.466 22.6635 33.6492 20.6091 34.0942 19.2099C34.2907 18.5922 34.6236 18.0641 35 17.6289"
      stroke="black" stroke-width="1.5" stroke-linecap="round" stroke-linejoin="round" />
    <path
      d="M54.0109 34.2051C54.3163 34.7953 55.2278 36.2856 56.072 37.7442C57.236 39.7552 57.5185 41.0125 57.0718 42.2744C56.7248 43.2545 54.9306 44.3417 52.439 44.5042"
      stroke="black" stroke-width="1.5" stroke-linecap="round" stroke-linejoin="round" />
    <path
      d="M51.4891 49.0613C50.2781 49.5215 47.8545 50.1316 45.9399 50.6209C45.4174 50.7544 45.4672 51.4473 46.0024 51.5135L49.0158 51.8868H56.1934L57.3829 51.5084C57.7631 51.3875 57.8555 50.8919 57.5445 50.6421L55.8077 49.2471C55.5471 49.0378 55.1992 48.9725 54.8805 49.0732L53.5962 49.4785L52.2214 49.0328C51.982 48.9552 51.7243 48.9719 51.4891 49.0613Z"
      fill="#FED1D0" />
    <path
      d="M27.4834 34.2739C25.8622 32.9358 22.6101 31.5324 22.8746 35.839C23.2052 41.2222 26.6806 45.4656 28.2389 46.6933"
      stroke="black" stroke-width="1.5" stroke-linecap="round" stroke-linejoin="round" />
    <path
      d="M25.5192 31.2554C25.3431 30.0555 25.2268 28.6639 25.3583 27.5687C25.585 25.6801 25.4527 21.3673 25.3583 19.447L26.8222 18.0772C27.2157 16.7239 29.5138 13.2239 35.5581 10.0506C43.1134 6.08408 50.9049 7.31212 53.7854 8.87041C56.6659 10.4287 60.3964 14.0629 61.1047 15.1018C61.813 16.1406 63.3713 22.5627 63.4185 23.0821C63.4563 23.4977 62.98 27.8665 62.6809 29.8655C62.555 27.7721 62.006 24.5948 60.7972 21.686"
      stroke="black" stroke-width="1.5" stroke-linecap="round" stroke-linejoin="round" />
    <path
      d="M57.4747 62.834C57.5243 62.8526 57.576 62.8745 57.629 62.8997C59.5218 63.704 64.5618 65.7847 68.6193 67.3985C73.8359 69.4733 83.9461 72.6418 86.1987 76.3764C88.0008 79.3641 89.4393 88.8844 89.9333 93.2711L-1.03425 92.6516L-1.36897 85.6782C-1.59773 80.9124 1.01614 76.4586 5.3154 74.3894C11.4119 71.4551 18.8107 67.9891 22.8554 66.3908C28.736 64.067 29.4157 64.0393 29.0205 64.316C23.8631 67.0428 28.3684 77.0018 39.0387 76.9425C49.709 76.8833 53.5029 72.0223 57.4747 68.2877C60.5094 65.4341 58.7566 63.435 57.629 62.8997C57.5749 62.8767 57.5235 62.8548 57.4747 62.834Z"
      fill="black" />
    <path
      d="M57.4747 62.834C58.5812 63.2489 60.6521 65.3 57.4747 68.2877C53.5029 72.0223 49.7091 76.8833 39.0387 76.9425C28.3684 77.0018 23.8631 67.0428 29.0205 64.316C29.4157 64.0393 28.736 64.067 22.8554 66.3908C18.8107 67.9891 11.4119 71.4551 5.3154 74.3894C1.01614 76.4586 -1.59773 80.9124 -1.36897 85.6782L-1.03425 92.6516L89.9333 93.2711C89.4393 88.8844 88.0008 79.3641 86.1987 76.3764C83.9461 72.6418 73.8359 69.4733 68.6193 67.3985C64.446 65.7387 59.2333 63.5849 57.4747 62.834Z"
      stroke="black" stroke-width="1.5" stroke-linecap="round" stroke-linejoin="round" />
    <path
      d="M41.0566 28.9524C44.8373 28.9463 47.7654 29.6496 48.7568 30.002C46.6143 29.7149 42.0367 29.2375 40.8656 29.6245C39.6945 30.0116 38.6479 30.1397 38.271 30.1554C38.6013 29.9151 40.2657 29.2533 41.0566 28.9524Z"
      stroke="black" stroke-width="1.5" stroke-linecap="round" stroke-linejoin="round" />
    <path
      d="M60.9515 30.3179C60.9515 30.3179 57.6259 29.9991 54.6248 30.5282C56.3144 30.4721 59.9191 30.4553 60.821 30.8368C61.7228 31.2184 62.1598 31.508 62.2655 31.6052C61.9475 31.0995 61.4545 30.7025 60.9515 30.3179Z"
      stroke="black" stroke-width="1.5" stroke-linecap="round" stroke-linejoin="round" />
    <path opacity="0.5" fill-rule="evenodd" clip-rule="evenodd"
      d="M63.1261 39.5332C62.8902 39.6074 62.6536 39.708 62.4221 39.8357C61.0718 40.5806 60.4081 41.9658 60.9397 42.9296C61.3327 43.6419 62.1705 44.2926 63.1261 44.283V39.5332Z"
      fill="#FED1D0" />
    <path
      d="M28.1573 44.7871C28.1573 45.8191 28.373 48.3895 29.2359 50.415C29.2359 54.0414 29.2359 63.2971 29.2359 64.0474C29.2359 64.7978 27.9229 66.1421 27.2664 66.7205"
      stroke="black" stroke-width="1.5" stroke-linecap="round" stroke-linejoin="round" />
    <path
      d="M44.9563 62.0986C46.266 62.6096 48.1034 63.0021 51.6675 62.6269C52.4647 62.7362 54.894 62.7111 56.8824 61.7357C59.3678 60.5164 63.2361 53.1819 63.0016 47.4607C63.0954 46.0694 63.2267 42.7053 63.0016 40.3793C62.7203 37.4717 62.4743 36.5257 62.4274 33.8996C62.3899 31.7986 62.6475 30.3389 62.7049 29.7266"
      stroke="black" stroke-width="1.5" stroke-linecap="round" stroke-linejoin="round" />
    <path d="M56.6445 61.9707V64.994" stroke="black" stroke-width="1.5" stroke-linecap="round"
      stroke-linejoin="round" />
    <ellipse cx="43.5708" cy="33.3831" rx="1.42798" ry="1.88305" fill="black" />
    <ellipse cx="58.3828" cy="34.0862" rx="1.34011" ry="1.88305" fill="black" />
    <path d="M26.9854 37.9824L27.3848 41.2657" stroke="black" stroke-width="1.5"
      stroke-linecap="round" stroke-linejoin="round" />
    <path d="M26.0393 39.6836L28.2585 39.8147" stroke="black" stroke-width="1.5"
      stroke-linecap="round" stroke-linejoin="round" />
    <path opacity="0.23"
      d="M32.075 56.236C31.0764 54.6421 29.5145 51.2296 29.2854 50.3594L29.4172 52.6441L31.2436 57.8479C31.7875 59.3974 32.7449 60.7685 34.0121 61.8128L40.9881 67.5617C41.2186 67.7516 41.3521 68.0347 41.3521 68.3334V71.776C41.3521 72.5996 42.2921 73.0701 42.9514 72.5765L56.8886 62.1433C54.3679 62.6474 47.2409 63.002 44.5944 62.6712C41.9479 62.3404 33.5259 58.5519 32.075 56.236Z"
      fill="black" />
    <path opacity="0.5"
      d="M37.3632 40.6271C37.8442 39.4814 39.5355 39.0991 41.1408 39.7731C42.7461 40.447 43.6575 41.9222 43.1765 43.0679C42.6955 44.2135 41.2868 45.3306 39.6815 44.6566C38.0762 43.9826 36.8822 41.7728 37.3632 40.6271Z"
      fill="#FED1D0" />
  </g>
  <defs>
    <clipPath id="clip0_2791_1679">
      <rect width="90" height="90" fill="white" transform="matrix(-1 0 0 1 90 0)" />
    </clipPath>
  </defs>
</svg>